<svg xmlns="http://www.w3.org/2000/svg" viewBox="0 0 423.724 474.925"><defs><style>.a{fill:#fff;}</style></defs><path class="a" d="M100.49,351.323c-13.4,0-26.806-.135-40.2.15a7.92,7.92,0,0,0-5.7,3.277C42.833,374.868,20.488,377.108,6,358.877c-6.652-8.369-7.684-18.508-3.523-28.531C7.187,319,16.8,314.323,28.483,314.121c4.749-.082,7.16-1.488,9.4-5.407Q56.8,275.558,76.207,242.679c2.242-3.8,2.06-6.7-.111-10.388q-19.515-33.144-38.608-66.532c-2.086-3.653-4.432-4.8-8.635-4.674-12.256.374-22.116-6.125-26.8-16.958-3.914-9.058-1.029-23.065,5.844-30.242,9.006-9.406,19.877-12.811,31.7-7.448,5.657,2.568,10.148,8.287,14.255,13.311,2.141,2.618,3.683,4.146,7.2,4.124q39.625-.242,79.253-.127c3.4.008,5.675-.884,7.462-3.96,13.454-23.154,27.114-46.192,40.476-69.4a7.624,7.624,0,0,0-.1-6.512C176.1,23.754,187.24,1.223,210.662.046c10.668-.536,20.232,3.613,26.314,13.348,6,9.606,5.088,19.38-.257,28.539-2.447,4.192-2.189,6.909.067,10.708q19.352,32.577,38.31,65.384c2.333,4.037,5.023,5.84,9.951,5.8,25.458-.215,50.92-.142,76.379.079,4.533.039,7.1-1.162,9.328-5.385,5.777-10.924,16.12-15.6,28.927-14.058,9.418,1.137,20.033,10.69,22.58,20.321,3.536,13.375.791,24.333-9.64,30.753-5.372,3.306-12.522,3.721-18.788,5.694-2.268.715-5.258,1.6-6.3,3.358-13.56,22.875-26.777,45.948-40.23,68.885-1.781,3.037-1.635,5.383.1,8.341q20.009,34.176,39.724,68.52c1.651,2.877,3.556,3.787,6.87,3.714,14.658-.321,27,8.114,29.073,20.749,2.618,15.971-2.982,27.068-17.576,34.084-12.68,6.1-28.14.239-35.146-12.9-1.89-3.543-3.979-4.774-7.954-4.743q-39.049.3-78.1.1c-4.2-.022-6.622,1.455-8.657,4.964q-19.727,34.008-39.777,67.831c-1.842,3.105-1.457,5.285.445,8.192a27.009,27.009,0,0,1-1.036,31.911c-6.7,8.779-20.146,12.852-31.5,9.541-12.4-3.62-20.464-12.292-20.45-24.354.007-5.926,3.207-11.812,4.652-17.789.548-2.269,1.174-5.277.159-7.044-13.238-23.058-26.812-45.926-40.164-68.92-1.868-3.216-4.164-4.366-7.857-4.315-13.2.182-26.414.071-39.621.071Z"/></svg>