<svg xmlns="http://www.w3.org/2000/svg" viewBox="0 0 473.536 424.046"><defs><style>.a{fill:#fff;}</style></defs><path class="a" d="M163.729,30.684c3.375.514,5.887.664,8.27,1.3,7.109,1.9,9.083,9.5,3.94,14.674-5.755,5.794-9.791,12.372-10.756,20.78-.979,8.524,2.862,16.2,10.969,19,10.007,3.459,18.157,9.657,25.975,16.431a42.169,42.169,0,0,1,11.813,17.1c1.367,3.616,1.592,7.8,1.65,11.737.068,4.712,0,9.212,3.134,13.234,1.16,1.489,1.547,3.649,2.012,5.57a2.4,2.4,0,0,1-1.034,2.012,2.615,2.615,0,0,1-2.178-.308,12.887,12.887,0,0,1-2.143-2.067c-4.55-4.6-9.084-9.221-13.656-13.8a52.037,52.037,0,0,0-6.118-5.785,33.788,33.788,0,0,0-13.568-6.037,19.115,19.115,0,0,1-3.841-1.017,9.52,9.52,0,0,1-2.1-1.677,17.328,17.328,0,0,1,2.424-1.338c.764-.283,1.709-.125,2.432-.464a29.521,29.521,0,0,0,3.2-1.992,17.773,17.773,0,0,0-3.385.031c-3.908.772-7.823,1.553-11.673,2.565-4.941,1.3-9.246-.068-13.168-2.91-2.823-2.046-5.5-4.315-8.119-6.619-2.154-1.893-2.113-3.054.215-4.788,1.857-1.384,3.947-2.453,5.905-3.708a5,5,0,0,0,.918-1.052,3.687,3.687,0,0,0-1.415-.165c-3.015.937-5.959,2.157-9.022,2.869a28.892,28.892,0,0,1-8.343.977A47.137,47.137,0,0,1,109.061,94.9c-1.244-1-.655-1.6.5-2.067,4.918-2,9.9-3.87,14.713-6.1,2.072-.961,3.79-2.688,5.669-4.068l-6.521,2.145C117.9,86.63,112.4,88.5,106.856,90.254c-5.013,1.589-9.948.637-14.656-1.134-4.82-1.811-9.468-4.082-14.179-6.18A15.477,15.477,0,0,1,75.4,81.506c-3.206-2.261-3.1-3.452.018-5.74q7.632-5.6,15.062-11.478c14.2-11.215,29.446-20.545,46.78-26.158,5.538-1.794,11-3.837,16.587-5.46C157.315,31.661,160.953,31.225,163.729,30.684Z"/><path class="a" d="M309.975,30.723c2.606.458,5.65.635,8.455,1.549,9.334,3.041,18.742,5.953,27.825,9.645,12.548,5.1,23.884,12.443,34.66,20.623,5.957,4.522,11.856,9.122,17.824,13.629,2.268,1.713,2.4,2.636.332,4.6a4.378,4.378,0,0,1-1.2.884c-6.72,2.878-13.334,6.064-20.216,8.489-6.106,2.151-12.165.213-18.013-1.889-4.854-1.745-9.671-3.592-14.522-5.342a6.009,6.009,0,0,0-1.807-.068,6.584,6.584,0,0,0,1.4,1.332c4.605,2.292,9.22,4.566,13.878,6.749,1.5.7,3.16,1.05,4.692,1.692a9.047,9.047,0,0,1,1.812,1.358c-.453.451-.872.943-1.365,1.347-7.743,6.352-16.834,9.125-26.635,10-5.165.463-9.791-1.537-14.519-3.122a27.108,27.108,0,0,0-3.8-.714,33,33,0,0,0,2.779,2.429c1.355.952,2.927,1.613,4.213,2.64,1.872,1.5,2.044,2.675.345,4.1-3.564,2.984-7.216,5.892-11.041,8.525a11.869,11.869,0,0,1-9.59,1.653c-4.86-1.1-9.7-2.278-14.568-3.347-.522-.115-1.154.27-1.734.423.38.493.672,1.278,1.158,1.426,1.723.526,3.537.752,5.264,1.267a6.939,6.939,0,0,1,1.834,1.325,7.137,7.137,0,0,1-1.731,1.457,27.65,27.65,0,0,1-3.836,1.055,36.437,36.437,0,0,0-18.424,10.186c-5.435,5.593-11.7,10.385-16.415,16.705a1.689,1.689,0,0,1-.731.663c-.869.242-2.061.805-2.581.447a2.834,2.834,0,0,1-.889-2.539,28.683,28.683,0,0,1,3.022-6.8,11.745,11.745,0,0,0,2.019-7.541c-.029-.5.023-1-.028-1.5-1.332-12.791,4.542-22.634,13.326-30.912,7.53-7.1,15.722-13.6,25.934-16.414,7.642-2.1,12.51-12.163,11.167-19.985a36.577,36.577,0,0,0-10.5-19.874c-5.368-5.505-3.509-13.024,3.925-14.936A79.381,79.381,0,0,1,309.975,30.723Z"/><path class="a" d="M199.719,157.411a25.828,25.828,0,0,1,15.244,7.562,13.953,13.953,0,0,1,3.077,5.6,7.848,7.848,0,0,1-6.27,9.627c-5.408.673-10.215-.531-13.8-5.068a12.151,12.151,0,0,0-3.544-3.411c-2.594-1.341-6.116.106-7.74,2.774-4.847,7.968-2.028,23.007,5.679,28.1a35.987,35.987,0,0,0,10.507,4.405c8.176,2.178,16.592,3.5,24.688,5.919,11.932,3.565,23.671,7.781,35.491,11.72,1.891.631,3.768,1.309,5.673,1.892a23.891,23.891,0,0,1,13.37,10.657c3.968,6.286,3.305,12.711-.085,18.957-3.139,5.781-7.849,10.324-12.638,14.7a6.589,6.589,0,0,1-4.981,1.461,102.772,102.772,0,0,1-12.451-3.528c-2.16-.716-2.485-2-1.026-3.813a13.468,13.468,0,0,1,3.428-2.743,25.72,25.72,0,0,0,10.037-11.472c2.867-6.365.917-11.483-5.4-14.4a74.753,74.753,0,0,0-8.82-3.451c-10.763-3.4-21.489-6.965-32.389-9.865-4.913-1.308-10.256-.894-15.311-1.788-13.072-2.312-23.574-8.83-30.767-20.141a36.826,36.826,0,0,1-5.684-17.387,20.847,20.847,0,0,1,5.856-15.927C178.2,161.159,187.62,157.579,199.719,157.411Z"/><path class="a" d="M227.008,178.315c0-8.159.012-16.319-.009-24.479,0-1.844-.125-3.576,1.687-4.9a1.745,1.745,0,0,0-.364-3.211c-4.177-1.644-4.886-5.318-5.228-8.925-.91-9.6-1.494-19.23-2.217-28.848-.324-4.315-.676-8.628-1-12.943-.2-2.725-.163-5.312,2.564-7.057a4.618,4.618,0,0,0,1.659-2.438c1.2-3.98,4.081-4.6,7.714-4.422,4.153.209,8.324.122,12.486.069a4.131,4.131,0,0,1,4.25,2.673c.917,1.895,2.654,3.385,3.632,5.26a10.3,10.3,0,0,1,1.38,5.038c-.532,8.966-1.334,17.915-2.019,26.872-.33,4.311-.523,8.634-.945,12.935a42.173,42.173,0,0,1-1.3,7.317,5.877,5.877,0,0,1-3.789,4.3c-1.765.622-2.179,2.188-.591,3.456,1.549,1.238,1.6,2.747,1.608,4.45.039,17.485.128,34.97.135,52.456a26.179,26.179,0,0,1-.7,5.409c-.65,3.056-.787,3.157-3.509,2.427-3.689-.989-7.353-2.079-11-3.2-3.292-1.013-4.721-3.25-4.672-6.756.117-8.492.038-16.986.038-25.479Z"/><path class="a" d="M248.557,314.476c-.578-2.714.651-4.491,3.805-5.4a17.253,17.253,0,0,0,5.209-2.9c6.595-4.882,5.94-13.745-1.264-17.688a19.165,19.165,0,0,0-3.229-1.3q-21.333-7.008-42.678-13.974c-9.769-3.171-15.518-10.6-19.834-19.222-3.353-6.7-2.451-13.368,2.6-19.051a60.188,60.188,0,0,1,8.085-7.33,7.329,7.329,0,0,1,4.6-1.571c5.624.454,11.223,1.264,16.815,2.056.672.1,1.793.959,1.749,1.362a4.1,4.1,0,0,1-1.335,2.376,6.7,6.7,0,0,1-2.318.837,18.571,18.571,0,0,0-3.292,1.12c-10.866,6.1-12.345,12.3-5.527,21.751a23.6,23.6,0,0,0,14.255,9.417,324.08,324.08,0,0,1,42.278,13.383c3.364,1.284,5.091,4.269,6.956,6.951,2.722,3.913,5.814,7.739,5.389,13.069-.316,3.965-1.427,7.475-4.225,10.393a33.9,33.9,0,0,1-10.765,7.958,76.336,76.336,0,0,0-7.127,3.6,6.556,6.556,0,0,1-6.611.23C248.628,318.887,248.554,318.989,248.557,314.476Z"/><path class="a" d="M236.733,46.89c-3.675-.465-7.308-.785-10.89-1.406-8.413-1.459-13-7.176-14.284-13.941-2.08-10.966.516-20.407,9.219-27.838A13.613,13.613,0,0,1,229.805.047c4.653-.006,9.311-.136,13.955.065a14.56,14.56,0,0,1,5.727,1.413c12.273,6.132,17.2,25.423,9.561,36.913a15.81,15.81,0,0,1-10.479,6.891C244.682,46.091,240.7,46.386,236.733,46.89Z"/><path class="a" d="M247.593,365.894c-.619-2.759.825-4.246,3.784-5.487,8.021-3.361,8.8-13.745,3.65-19.7a22.492,22.492,0,0,0-7.831-5.94c-10.127-4.619-20.31-9.114-30.418-13.772-6.624-3.052-13.514-5.639-18.772-11.092-6.118-6.342-7.063-13.143-2.377-20.724,1.916-3.1,4.15-6.012,6.355-8.922a6.359,6.359,0,0,1,7.973-2.251c4.354,1.654,8.731,3.251,13.042,5.009.771.314,1.272,1.293,1.9,1.965a14.592,14.592,0,0,1-2.42,1.969c-.694.362-1.663.155-2.437.415-3.925,1.322-7.447,3.218-8.314,7.735-.936,4.885.531,9.022,4.914,11.581,8.181,4.777,16.344,9.623,24.794,13.887a153.1,153.1,0,0,0,18.054,7.225,21.1,21.1,0,0,1,13.848,23.2c-1.056,6.968-5.031,11.819-10.323,15.844a57.093,57.093,0,0,1-7.216,4.441C250.525,374.165,247.523,372.315,247.593,365.894Z"/><path class="a" d="M289.165,184.539c-.418-2.449-.7-4.929-1.288-7.337-.652-2.679-1.906-5-4.957-5.659-3.186-.686-5.39.686-7.182,3.226-3.331,4.724-8.163,6.039-13.6,5.475a7.989,7.989,0,0,1-6.3-11.156,17.13,17.13,0,0,1,6.916-7.626c8.367-5.251,17.077-4.712,25.906-1.736a52.829,52.829,0,0,1,7.616,3.674c8.634,4.57,12.98,17.024,10.308,26.26-3.52,12.17-10.676,20.816-21.424,26.9-2.606,1.475-5.288,2.814-7.9,4.278a10.639,10.639,0,0,1-9.578.545c-4.957-1.9-10.039-3.473-15.046-5.245a8.733,8.733,0,0,1-1.848-1.26c.694-.573,1.323-1.529,2.093-1.658a79.211,79.211,0,0,0,19.453-6.132c1.061-.48,2.132-.941,3.221-1.352C285.337,202.047,289.01,194.5,289.165,184.539Z"/><path class="a" d="M33.586,118.32c-9.745-1.573-19.1-3.062-28.441-4.621a6.3,6.3,0,0,1-2.731-1.163c-.968-.752-2.323-1.753-2.405-2.738-.155-1.865,1.747-1.482,2.982-1.708a4.451,4.451,0,0,0,1.436-.381c7-4.112,15.015-5.288,22.592-7.7a141.026,141.026,0,0,0,26.355-11.8A52.121,52.121,0,0,1,62.553,84.5c3.511-1.165,6.834-.224,10.134,1.271,4.833,2.188,9.738,4.238,14.706,6.1,1.473.552,3.267.2,4.9.4a10.178,10.178,0,0,1,2.19.785,10.05,10.05,0,0,1-1.406,2.3,8.16,8.16,0,0,1-2.555,1.528c-16.473,6.7-32.935,13.427-49.467,19.977C38.634,117.82,35.866,117.9,33.586,118.32Z"/><path class="a" d="M439.4,118.43a65.384,65.384,0,0,1-7.768-1.915c-8.088-3.043-16.121-6.238-24.134-9.478-7.86-3.177-15.681-6.45-23.489-9.752a24.9,24.9,0,0,1-4.3-2.472,1.358,1.358,0,0,1,.864-2.54c6.341.712,11.5-2.819,17.121-4.672a3.323,3.323,0,0,0,.895-.438c7.184-5.144,14.07-3.078,21.057.625,6.31,3.343,12.649,6.71,19.245,9.406,5.977,2.442,12.334,3.94,18.491,5.956,3.145,1.031,6.207,2.314,9.328,3.425,1.7.606,3.473,1.015,5.153,1.67.674.263,1.581.888,1.663,1.454a2.625,2.625,0,0,1-1.04,2.027,9.227,9.227,0,0,1-3.544,1.763C459.125,115.207,449.284,116.794,439.4,118.43Z"/><path class="a" d="M103.807,146.5c-2.236-.744-4.234-1.51-6.288-2.071a65.052,65.052,0,0,0-9.585-2.294,40.843,40.843,0,0,1-12.763-3.813,2.539,2.539,0,0,1-1-1.518c-.053-.174.636-.728,1.064-.865,1.42-.457,2.893-.747,4.314-1.2a215.531,215.531,0,0,0,46.31-20.618,43.087,43.087,0,0,1,5.9-2.554,6.09,6.09,0,0,1,5.7.659c4.3,2.509,8.7,4.857,12.963,7.433,2.8,1.7,5.19,4.141,8.84,4.088.514-.007,1.266.956,1.483,1.611.129.391-.44,1.279-.919,1.557-1.575.915-3.254,1.649-4.89,2.46-10.87,5.39-21.9,10.458-33.613,13.7C115.605,144.653,109.651,145.383,103.807,146.5Z"/><path class="a" d="M369.8,146.365c-9.72-.443-18.837-3.029-27.627-6.6-9.068-3.682-17.907-7.928-26.844-11.931a4.011,4.011,0,0,1-1.312-.7c-.526-.562-1.28-1.286-1.238-1.894.039-.567,1-1.539,1.536-1.528,3.654.074,6.037-2.334,8.812-4.085,3.508-2.215,7.347-3.928,10.746-6.286,4.523-3.137,8.757-2.393,12.984.232a207.276,207.276,0,0,0,44.306,20.254c2.045.68,4.168,1.125,6.217,1.795a9.78,9.78,0,0,1,2.011,1.248c-.52.567-.934,1.365-1.578,1.661-3.766,1.733-7.609,3.356-11.828,3.453a27.194,27.194,0,0,0-10.547,2.606A48.878,48.878,0,0,1,369.8,146.365Z"/><path class="a" d="M411.322,132.206a88.07,88.07,0,0,1-24.884-5.1c-8.787-3.127-17.458-6.439-25.51-11.267-3.253-1.95-6.9-3.238-10.362-4.846a32.774,32.774,0,0,1-3.538-1.819c-.187-.116-.1-1.092.169-1.4a1.88,1.88,0,0,1,1.4-.337c6.147.553,11.105-3.1,16.606-4.788,1.777-.546,3.215-2.265,4.752-3.517,2.284-1.859,4.565-2.483,7.275-.721a33.639,33.639,0,0,0,5.363,2.644q22.51,9.454,45.049,18.84a10.742,10.742,0,0,0,7.286.82,2.31,2.31,0,0,1,3.168,2.195c.039.711-1.226,1.833-2.128,2.2a138.386,138.386,0,0,1-13.5,4.984A106.7,106.7,0,0,1,411.322,132.206Z"/><path class="a" d="M40.808,121.119a29.47,29.47,0,0,0,4.465-1.082c6.209-2.378,12.42-4.764,18.528-7.386q16.7-7.167,33.256-14.662c2.374-1.077,4.4-.813,5.926.838,3.824,4.136,9.257,5.037,14,7.244,2.46,1.145,5.5,1.031,8.259,1.56a1.549,1.549,0,0,1,1.062.879,1.5,1.5,0,0,1-.649,1.166,17.551,17.551,0,0,1-2.222,1.118c-5.064,2.482-10.193,4.84-15.178,7.472A148.465,148.465,0,0,1,74.172,130.8a48.546,48.546,0,0,1-20.735.174,23.243,23.243,0,0,1-3.744-1.336c-3.712-1.4-7.407-2.853-11.135-4.212-1.495-.545-3.657-.49-3.108-2.9.483-2.121,2.223-2.164,4-1.634C39.613,120.941,39.783,120.951,40.808,121.119Z"/><path class="a" d="M226.442,331.519a6.281,6.281,0,0,1-3.672,5.567c-5.384,2.777-7.694,7.609-7.6,13.476a10.522,10.522,0,0,0,6.31,9.525c11.285,5.557,21.149,13.157,31.077,20.749,6.529,4.993,8.906,11.781,10.036,19.35a5.678,5.678,0,0,1-.787,3.307c-1.146,2.065-3.36,2.24-4.9.373a44.7,44.7,0,0,1-3.366-4.954,52.691,52.691,0,0,0-19-18.661q-7.587-4.259-15.329-8.238a54.382,54.382,0,0,1-13.769-9.754c-8.056-8.008-6.807-24.636,2.267-31.226,1.746-1.268,3.277-2.864,5.111-3.973,3.873-2.341,10.529-1.19,13.133,2.184C226.377,329.8,226.291,330.75,226.442,331.519Z"/><path class="a" d="M170.727,126.407c4.542,1.245,8.681,1.707,12.157,3.474,6.95,3.533,13.565,7.734,20.247,11.777a13.356,13.356,0,0,1,3.161,3.135,1.925,1.925,0,0,1,.127,1.8,2.341,2.341,0,0,1-1.7.715,4.218,4.218,0,0,1-1.895-.5c-5.766-2.758-11.981-2.881-18.114-2.6-3.045.138-6.038,1.605-9.038,2.524-8.413,2.578-16.8,5.236-25.24,7.721a9.82,9.82,0,0,1-3.9-.181c-4.279-.595-8.555-1.217-12.819-1.911-4.066-.661-8.118-1.411-12.167-2.17-.431-.081-1.151-.514-1.133-.734a2.289,2.289,0,0,1,.7-1.649,14.183,14.183,0,0,1,3.674-1.484c13.813-3.169,26.044-9.914,38.274-16.707A68.478,68.478,0,0,1,170.727,126.407Z"/><path class="a" d="M324,154.7a26.154,26.154,0,0,1-3.835-.888c-8.257-3.062-16.954-4.652-25.128-8.133-7.66-3.263-15.685-1.794-23.427.7-1.527.492-3.3,2.025-4.476.2-1.154-1.8.808-3.061,2.043-3.994,9.083-6.865,18.747-12.619,29.974-15.329a13.482,13.482,0,0,1,10.882,2.021c9,5.806,18.847,9.913,28.6,14.17,3.318,1.448,7.064,1.886,10.531,3.036,1.473.488,3.943,1.743,3.872,2.436-.247,2.416-2.586,1.07-4.046,1.366-4.371.885-8.747,1.75-13.138,2.529C332.092,153.486,328.308,154.022,324,154.7Z"/><path class="a" d="M236.748,76.33a94.048,94.048,0,0,1-10.477-.094,31.01,31.01,0,0,1-8.063-2.316,4.978,4.978,0,0,1-2.463-2.873,107.691,107.691,0,0,1-2.62-10.642c-.957-4.848,1.04-7.3,5.97-7.38a42.709,42.709,0,0,1,6.464.452,83.483,83.483,0,0,0,22.386.006,43.256,43.256,0,0,1,6.96-.415c4.163.12,6.269,2.372,5.614,6.353a96.435,96.435,0,0,1-2.911,12.1,4.809,4.809,0,0,1-2.757,2.624,41.029,41.029,0,0,1-8.622,2.139,83.672,83.672,0,0,1-9.48.081Z"/><path class="a" d="M244.515,251.255c.218,3.883.447,8.019.685,12.155.158,2.757.126,2.8-2.672,2.09-3.532-.9-7.03-1.959-10.59-2.727-2.294-.5-3.378-1.4-3.258-3.98.407-8.772.61-17.554.843-26.333.046-1.738.641-2.5,2.418-1.861.312.111.642.173.952.291,3.245,1.237,6.854,1.949,9.637,3.86,3.327,2.285.985,6.521,1.884,9.806C244.962,246.56,244.515,248.837,244.515,251.255Z"/><path class="a" d="M229.622,391.389c0-.831-.055-1.665.013-2.489.171-2.05.4-4.1.6-6.143,1.7.975,3.445,1.884,5.089,2.947,1.248.807,2.282,1.963,3.564,2.7,4.56,2.615,5.564,6.454,4.783,11.436-.741,4.726-.789,9.56-1.169,14.345a44.309,44.309,0,0,1-.583,5.423c-.738,3.584-1.987,4.525-5.417,4.434-3.132-.083-4.169-.991-4.952-4.417a18.108,18.108,0,0,1-.492-2.942C230.561,408.252,230.1,399.821,229.622,391.389Z"/><path class="a" d="M244.868,345.6c-.669,6.426-1.364,12.85-1.991,19.28-.177,1.809-1.065,1.844-2.31,1.091-3.127-1.891-6.288-3.739-9.3-5.8a3.967,3.967,0,0,1-1.637-2.778c.173-7.961.525-15.918.87-23.874.059-1.361.973-1.664,2.074-1.087,3.384,1.775,6.73,3.622,10.1,5.422a3.7,3.7,0,0,1,1.956,3.732c-.035,1.329-.007,2.66-.007,3.99Z"/><path class="a" d="M228.627,297.314q0-4.97,0-9.939c0-1.511.7-2.161,2.191-1.733q5.964,1.713,11.913,3.477a2.792,2.792,0,0,1,2.054,3.029c-.031,2.652-.02,5.306-.122,7.955-.172,4.457-.416,8.912-.635,13.368-.135,2.746-.469,3.061-2.838,2.035-3.5-1.512-6.894-3.249-10.373-4.8a3.622,3.622,0,0,1-2.273-3.945c.114-3.145.031-6.3.031-9.446Z"/><path class="a" d="M228.266,383.675a91.129,91.129,0,0,1-4.132,9.429c-1.878,3.285-4.316,6.25-6.5,9.363-1.049,1.5-2,3.352-4.269,2.458-2.16-.851-2.745-2.828-2.48-4.932a32.069,32.069,0,0,1,5.731-15.17,48.362,48.362,0,0,1,3.815-4.579c1.134-1.21,2.41-2.437,4.315-1.525A6.22,6.22,0,0,1,228.266,383.675Z"/></svg>