<svg xmlns="http://www.w3.org/2000/svg" viewBox="0 0 212.471 357.435"><defs><style>.a{fill:#ed1c24;}</style></defs><path class="a" d="M120.487,298.1c44.693-6.391,91.984-43.475,91.984-88.274V191.5a6.331,6.331,0,0,0-7.733-6.31l-.832.205a6.448,6.448,0,0,0-4.822,6.31v17.707c0,42.4-48.553,76.771-92.41,76.771H105.8c-43.857,0-92.41-34.372-92.41-76.771V191.709a6.448,6.448,0,0,0-4.822-6.31l-.832-.205A6.331,6.331,0,0,0,0,191.5v18.325c0,44.8,47.29,81.883,91.984,88.274a4.193,4.193,0,0,1,3.6,4.15v32.82a4.2,4.2,0,0,1-4.2,4.2H18.966a4.2,4.2,0,0,0-4.2,4.2v9.759a4.2,4.2,0,0,0,4.2,4.2H193.505a4.2,4.2,0,0,0,4.2-4.2v-9.759a4.2,4.2,0,0,0-4.2-4.2H121.083a4.2,4.2,0,0,1-4.2-4.2v-32.82A4.194,4.194,0,0,1,120.487,298.1Z"/><path class="a" d="M106.235,257.553h0A62.554,62.554,0,0,0,168.789,195v-8.574H150.437V167.366h18.352v-18.59H150.437V129.718h18.352V108.729H150.437V89.67h18.352V62.554A62.554,62.554,0,0,0,106.235,0h0A62.554,62.554,0,0,0,43.681,62.554V89.67H62.034v19.059H43.681v20.989H62.034v19.058H43.681v18.59H62.034v19.059H43.681V195A62.555,62.555,0,0,0,106.235,257.553Z"/></svg>