<?xml version="1.0" encoding="UTF-8" standalone="no"?>
<!DOCTYPE svg PUBLIC "-//W3C//DTD SVG 1.1//EN" "http://www.w3.org/Graphics/SVG/1.1/DTD/svg11.dtd">
<svg width="100%" height="100%" viewBox="0 0 2000 2000" version="1.1" xmlns="http://www.w3.org/2000/svg" xmlns:xlink="http://www.w3.org/1999/xlink" xml:space="preserve" xmlns:serif="http://www.serif.com/" style="fill-rule:evenodd;clip-rule:evenodd;stroke-linejoin:round;stroke-miterlimit:2;">
    <path id="Circle" d="M278.653,1344.83C302.994,1390.12 404.343,1530.34 498.498,1606.16C638.759,1719.1 813.67,1786.97 1001.59,1786.97C1022.47,1786.97 1043.15,1786.1 1063.6,1784.4L982.126,1814.41L982.126,1818.88C982.126,1818.88 1016.35,1816.87 1073.17,1807.25C1129.99,1797.63 1171.9,1785.8 1181.74,1784.24C1185.67,1783.61 1197.23,1787.58 1198.71,1788.66C1201.02,1790.34 1197.24,1794.32 1200.14,1794.85C1204.34,1795.63 1214.25,1791.37 1220.59,1789.8C1239.6,1785.11 1283.44,1768.55 1315.21,1756.03C1333.73,1748.72 1366.99,1731.4 1384.43,1721.78C1400.24,1713.05 1411.6,1704.85 1418.78,1704.58C1424.63,1704.35 1435.84,1705.45 1445.21,1701.29C1463.44,1693.19 1485.51,1674.01 1523.37,1648.38C1580.69,1609.59 1628.71,1533.1 1628.71,1533.1C1628.71,1533.1 1636.24,1541.9 1640.79,1556.93C1643.01,1564.29 1641.72,1570.71 1639.82,1575.35C1637.93,1577.63 1635.92,1579.93 1633.85,1582.32C1479.53,1760.49 1252.23,1870.89 989.228,1870.64C836.498,1870.5 691.227,1828.81 566.22,1756.03C465.122,1697.16 381.212,1616.32 306.783,1527.86C282.505,1499 260.396,1468.81 240.587,1437.43C239.579,1430.68 239.441,1423.94 240.677,1417.67C246.794,1386.65 255.095,1373.54 262.086,1357.38C262.475,1356.48 263.393,1354.96 263.393,1354.96L314.153,1433.64L319.906,1429.69L273.45,1347.92C273.45,1347.92 276.849,1345.83 278.653,1344.83ZM959.359,1826.81L959.151,1833.27L1080.56,1822.53L1080.56,1816.66L959.359,1826.81ZM142.608,832.771C160.879,761.42 189.663,692.523 223.016,627.204C267.485,540.117 321.878,454.766 390.774,386.424C546.491,231.96 756.874,137.613 986.174,129.267C1254.79,119.491 1497.63,254.265 1657.88,450.321C1710.23,514.366 1757.55,584.95 1789.38,659.17C1791.43,664.798 1793,669.78 1793,671.758C1793,674.096 1788.77,675.365 1786.57,674.554C1782.77,673.15 1756,629.549 1743.41,620.042C1738.96,616.679 1734.96,617.032 1732.24,617.744C1727.54,618.972 1724.59,617.788 1721.7,614.716C1717.23,609.962 1666.06,543.972 1666.06,543.972L1661.3,547.327C1661.3,547.327 1702.67,621.427 1712.23,638.763C1714.5,642.884 1719.36,649.11 1718.63,651.346C1718.23,652.572 1717.42,653.643 1714.97,653.643C1713.61,653.643 1708.88,648.285 1704.24,643.283C1689.84,625.833 1674.95,608.935 1664.55,595.289C1616.56,532.316 1595.24,499.272 1544.9,450.321C1399.09,308.537 1212.15,213.521 1001.59,218.635C681.878,226.4 401.54,434.818 288.889,708.895C273.15,747.188 253.719,778.327 238.376,809.279C232.759,817.775 226.776,827.562 220.58,838.768C188.686,896.439 203.977,860.613 203.977,860.613L240.677,742.176L232.998,738.418C232.998,738.418 200.249,813.222 190.943,824.317C181.638,835.413 184.143,825.258 173.048,832.013C161.952,838.768 137.256,899.658 137.256,899.658L130.993,897.869C130.993,897.869 133.319,877.556 141.73,838.768C142.203,836.589 142.489,834.594 142.608,832.771ZM1684.76,1509.53L1683.33,1507.79L1685.84,1470.2C1685.84,1470.2 1690.47,1464.05 1696.97,1453.37C1701.69,1445.6 1710.61,1424.74 1717.9,1404.58C1728.96,1374.03 1738.45,1345.2 1743.82,1340.5C1752.54,1332.86 1763.98,1326.94 1770.03,1317.23C1774.34,1310.32 1784.65,1290.8 1786.84,1285.06C1790.84,1279.58 1796.4,1277.16 1801.54,1278.86C1803.17,1279.41 1805.18,1283 1804.38,1285.88C1804.17,1286.63 1804.4,1287.44 1805,1288.31C1778.93,1361.37 1733.33,1444.77 1690.02,1502.34C1688.18,1504.79 1686.43,1507.18 1684.76,1509.53Z" style="fill:white;"/>
    <path id="W" d="M448.884,566.448C457.44,555.604 474.053,545.565 501.179,544.875C519.668,544.406 545.737,552.022 566.908,552.022C591.063,552.022 614.235,544.807 632.899,544.875C643.565,544.915 647.056,549.206 654.701,549.206C666.996,549.206 674.272,555.07 676.767,557.78C680.689,562.041 668.649,586.579 675.988,620.307C682.691,651.108 773.314,1082.06 788.638,1185.64C791.529,1205.19 805.275,1220.06 805.275,1220.06C805.275,1220.06 876.658,768.27 896.56,661.924C899.685,645.226 886.364,591.809 911.614,581.486C927.408,575.029 962.86,573.962 999.967,573.962C1040.47,573.962 1090.81,567.583 1097.77,579.663C1099.88,583.334 1094.74,595.12 1094.74,620.307C1094.45,647.156 1112.15,710.091 1125.63,770.535C1147.19,875.203 1183.69,1014.64 1192.33,1069.63C1200.63,1122.46 1209.91,1197.25 1223.29,1198.88C1226.16,1199.23 1230.91,1185.33 1233.09,1166.95C1235.31,1148.25 1234.96,1124.91 1238.16,1107.04C1258.03,995.941 1330.32,591.573 1330.32,577.174C1330.32,569.484 1335.23,558.224 1337.99,555.281C1345.66,547.102 1372,557.78 1395.5,557.78C1423.4,557.78 1470.44,549.206 1502.67,549.206C1523.17,549.206 1540.59,555.303 1538.33,568.351C1536.64,578.099 1521.27,599.16 1518.93,610.69C1515.36,628.322 1472.92,858.439 1426.04,1089.5C1390.43,1265.01 1349.78,1444.35 1335.97,1512.45C1331.37,1535.1 1347.64,1577.82 1324.26,1584.22C1312.46,1587.45 1282.96,1584.04 1255.83,1586.56C1238.54,1588.17 1196.54,1596.37 1171.27,1596.37C1142.32,1596.37 1114.63,1590.78 1106.76,1575.23C1096.83,1555.61 1116.42,1538.22 1112.42,1514C1106.13,1475.97 1083.83,1376.58 1063.35,1271.93C1032.56,1114.62 1001.64,944.369 1001.64,944.369C1001.64,944.369 995.328,946.082 994.673,948.747C985.242,987.096 917.707,1338.44 893.68,1481.23C885.513,1529.76 887.812,1560.7 882.135,1568.36C877.044,1575.23 858.448,1573.83 831.651,1575.87C764.807,1580.96 682.643,1590.23 653.752,1580.75C639.74,1576.15 647.519,1557.27 648.69,1541.67C650.455,1518.17 645.808,1472.03 640.437,1451.66C587.022,1249.1 558.789,989.502 467.612,631.811C463.706,616.49 438.998,578.978 448.884,566.448Z" style="fill:white;"/>
</svg>
