<svg width="144" height="144" viewBox="0 0 144 144" fill="none" xmlns="http://www.w3.org/2000/svg">
<rect width="144" height="144" fill="black"/>
<path d="M38.0492 29.6145C42.6958 32.4447 47.2954 32.7165 51.8426 30.0605C56.3842 27.4065 58.311 23.2304 58.043 18.0534C64.3745 15.4875 77.2119 15.1688 84.4188 17.9972C84.3382 22.9399 85.9745 27.0934 90.2424 29.7532C94.8965 32.6547 99.6911 32.4822 104.474 29.607C106.712 31.7212 108.675 34.1298 110.457 36.6845C113.769 41.4341 116.187 46.5998 117.657 52.2866C112.915 54.787 110.469 58.7419 110.502 64.0201C110.536 69.3507 113.303 73.1032 117.96 75.6935C116.851 80.2782 115.001 84.6136 112.562 88.7034C110.431 92.2778 107.886 95.5204 104.862 98.3526C100.31 95.5223 95.6968 95.2411 91.1515 97.8877C86.6118 100.531 84.6475 104.695 84.9249 109.891C78.7695 112.455 66.2395 112.909 58.4778 109.977C58.6821 108.067 58.3316 106.212 57.6643 104.416C56.6278 101.629 54.8734 99.4303 52.2587 97.9515C48.435 95.7903 44.4989 95.7004 40.4578 97.2654C39.7811 97.5279 39.2788 98.0864 38.5066 98.3357C37.6912 97.7678 37.0221 96.9768 36.353 96.2158C32.5574 91.8973 29.4385 87.1365 27.298 81.787C25.7123 77.8209 25.4367 76.6701 25.418 75.6129C30.132 73.1388 32.5068 69.1108 32.4524 63.8701C32.3981 58.6182 29.6728 54.832 25 52.3129C25.6373 49.4339 26.6888 46.6842 27.9052 43.9907C29.1273 41.2823 30.6118 38.7219 32.3231 36.2965C34.0288 33.8767 35.9312 31.6256 38.0511 29.6107L38.0492 29.6145ZM58.9708 78.4338C59.1301 71.6543 53.462 66.0181 46.6881 66.0312C39.7811 66.0444 34.2068 71.3169 34.2049 78.3532C34.2031 85.4345 39.6331 90.7821 46.5625 90.8252C53.5051 90.8683 59.1038 85.2077 58.9726 78.4338H58.9708ZM83.9821 49.9381C83.8378 52.2341 84.7637 54.6108 86.237 56.8113C86.7749 57.6154 87.4459 58.3089 88.1825 58.9462C90.3905 60.8618 92.9659 61.8477 95.8636 61.9695C98.0529 62.0614 100.122 61.5684 102.086 60.5656C105.115 59.0174 107.07 56.5751 108.159 53.4075C108.8 51.5388 108.829 49.5744 108.564 47.6626C108.077 44.1538 106.302 41.3348 103.382 39.3311C101.282 37.8897 98.9244 37.1681 96.3341 37.1831C92.9471 37.2018 90.0288 38.3752 87.6315 40.7087C85.1742 43.1004 83.9409 46.0656 83.9821 49.9399V49.9381ZM58.9708 49.6569C59.1863 42.7518 53.3927 37.1981 46.66 37.1681C39.9742 37.1381 34.2162 42.4182 34.2031 49.5538C34.1899 56.6107 39.7268 61.9189 46.5251 61.9676C53.1771 62.0164 59.1132 56.4364 58.9726 49.655L58.9708 49.6569ZM108.645 78.5407C108.725 76.1902 108.345 74.6926 107.449 72.8576C106.512 70.9364 105.142 69.3676 103.382 68.183C100.624 66.3274 97.5824 65.7145 94.2873 66.2149C91.1721 66.6873 88.6811 68.1867 86.6999 70.5953C84.3326 73.4743 83.5866 76.835 84.0946 80.4281C84.5013 83.3109 85.8846 85.7551 88.1001 87.7287C89.6127 89.0764 91.3671 89.9049 93.2658 90.4484C94.8983 90.9151 96.574 90.9545 98.2665 90.6752C99.7679 90.4278 101.149 89.8692 102.459 89.1589C103.697 88.4879 104.776 87.5751 105.704 86.5029C106.902 85.1196 107.803 83.5789 108.283 81.7927C108.579 80.6943 108.667 79.5866 108.643 78.5444L108.645 78.5407ZM71.7332 47.3739C73.8194 47.5201 75.6862 47.1059 77.4219 46.15C78.8258 45.3778 80.0572 44.3956 81.0712 43.1379C82.597 41.2448 83.5997 39.1155 83.8397 36.7014C84.0908 34.1822 83.7872 31.7362 82.537 29.4495C81.478 27.5133 80.0778 25.9126 78.2129 24.7655C75.7856 23.2716 73.1596 22.5988 70.275 22.9324C67.8739 23.2117 65.7503 24.0814 63.9059 25.6015C62.1946 27.011 60.922 28.7504 60.131 30.8534C59.5031 32.5197 59.2238 34.2216 59.3419 35.9798C59.4393 37.4136 59.7973 38.7894 60.3915 40.1221C61.4149 42.42 62.9819 44.2363 65.0943 45.5427C67.1448 46.8079 69.364 47.6045 71.7351 47.3739H71.7332ZM71.542 105.1C78.1473 105.291 83.8059 99.3385 83.9278 93.1006C84.059 86.3923 78.6308 80.5331 71.6695 80.5331C64.6407 80.5331 59.3569 86.1224 59.3194 92.8251C59.2819 99.4716 65.1224 105.16 71.542 105.1ZM71.6751 71.9448C75.8662 72.106 79.6186 68.093 79.613 64.0144C79.6092 59.8384 76.0349 55.9622 71.632 56.0016C67.0811 56.0428 63.6435 59.7896 63.6323 64.0051C63.621 68.3742 67.6209 72.1435 71.6732 71.9429L71.6751 71.9448Z" fill="#D9B365"/>
</svg>
