<svg width="144" height="144" viewBox="0 0 144 144" fill="none" xmlns="http://www.w3.org/2000/svg">
<path d="M23.1066 59.064C23.1151 58.9606 23.0999 58.8488 23.1359 58.7561C23.5938 57.5751 24.0479 56.3918 24.5249 55.2182C25.0143 54.0153 25.5286 52.8215 26.0307 51.6234C26.0423 51.5953 26.0411 51.5616 26.0511 51.4964C25.928 51.4301 25.7979 51.3599 25.6306 51.2698C25.4964 51.4902 25.3711 51.6978 25.2454 51.904C24.473 53.1729 23.698 54.441 22.9294 55.7121C22.7912 55.9413 22.6932 56.1938 22.5525 56.4214C22.3821 56.697 22.1769 56.8831 21.7828 56.8326C21.2783 56.7678 20.8992 57.0398 20.6377 57.445C20.3406 57.9061 20.0616 58.3797 19.7865 58.8548C19.3869 59.5441 18.998 60.2388 18.6035 60.9304C18.5726 60.9848 18.5323 61.0345 18.482 61.1079C18.3621 61.0425 18.2523 60.9824 18.1344 60.9177C18.1472 60.3207 18.2315 59.7523 18.4318 59.2024C19.5031 56.2552 20.6952 53.3561 22.0467 50.5224C24.1314 46.1516 26.5923 42.0005 29.5978 38.1715C31.8585 35.2918 34.3803 32.6527 37.1585 30.248C40.362 27.4749 43.8736 25.1416 47.6426 23.1734C51.3496 21.2376 55.2257 19.7074 59.2584 18.5574C61.3254 17.9678 63.4221 17.4983 65.5434 17.1233C68.0554 16.6796 70.5865 16.412 73.1348 16.3133C76.158 16.1961 79.1753 16.3202 82.1809 16.6974C84.2251 16.9542 86.2471 17.3216 88.2458 17.8183C89.9337 18.2378 91.6004 18.7234 93.2348 19.3123C95.819 20.2432 98.3128 21.3677 100.714 22.6915C105.517 25.339 109.784 28.6634 113.661 32.489C118.19 36.9572 121.888 42.0113 124.821 47.6083C125.878 49.6257 126.841 51.6859 127.674 53.8019C127.873 54.3077 127.994 54.8432 128.157 55.3867C127.993 55.445 127.884 55.4839 127.746 55.5327C127.673 55.4264 127.606 55.333 127.542 55.2366C126.854 54.1889 126.17 53.1396 125.479 52.0942C125.211 51.6882 124.844 51.4809 124.336 51.5962C124.262 51.6127 124.187 51.6194 124.047 51.6396C123.849 51.3912 123.614 51.1372 123.425 50.854C122.55 49.54 121.687 48.2174 120.819 46.8989C120.736 46.7738 120.644 46.655 120.538 46.5086C120.411 46.5731 120.303 46.6289 120.201 46.6812C121.268 49.0021 122.321 51.2907 123.377 53.5867C123.291 53.6669 123.232 53.7216 123.133 53.8142C122.842 53.4774 122.534 53.1831 122.299 52.8399C120.699 50.5004 119.109 48.1541 117.527 45.8038C115.548 42.8635 113.383 40.0658 110.933 37.4851C107.984 34.3778 104.721 31.6352 101.076 29.3382C98.7585 27.8772 96.3293 26.6255 93.7897 25.5761C91.9505 24.8157 90.0711 24.1672 88.1499 23.649C86.8642 23.3021 85.5574 23.0272 84.2525 22.753C81.8696 22.2531 79.4554 21.964 77.0239 21.87C75.4726 21.8102 73.9149 21.7952 72.365 21.8629C69.1552 22.0029 65.9987 22.5061 62.8947 23.3246C57.2784 24.8059 52.1254 27.2531 47.385 30.5198C45.0236 32.1467 42.6538 33.7723 40.5322 35.7138C37.7561 38.2544 35.3014 41.0626 33.086 44.0805C31.1826 46.6735 29.4433 49.3712 27.7522 52.0999C26.5044 54.1139 25.2584 56.1294 24.0043 58.1403C23.8288 58.4213 23.6163 58.6799 23.4121 58.9424C23.3627 59.0055 23.2785 59.0426 23.2105 59.0919C23.1757 59.082 23.1409 59.0726 23.1067 59.0627L23.1066 59.064Z" fill="white"/>
<path d="M24.3841 91.0929C25.2379 92.8828 26.178 94.6255 27.2791 96.302C27.3989 96.2485 27.5051 96.2004 27.653 96.1343C26.8588 94.2691 25.8878 92.5018 25.0799 90.6271C25.2006 90.5471 25.3114 90.4741 25.4537 90.3798C25.5283 90.5075 25.5909 90.6045 25.6425 90.7063C27.5683 94.4942 29.7672 98.1204 32.3322 101.53C35.3352 105.522 38.7676 109.112 42.741 112.194C46.0927 114.793 49.7203 116.94 53.6294 118.632C55.7466 119.548 57.9158 120.322 60.1354 120.955C62.3023 121.573 64.5021 122.054 66.7279 122.421C68.7936 122.761 70.8704 122.99 72.9583 123.133C73.0723 123.141 73.1862 123.152 73.3002 123.161C73.3036 123.191 73.3071 123.221 73.3106 123.251C71.8841 123.637 70.4583 124.023 69.0177 124.414L68.9924 124.721C69.5794 124.712 70.1454 124.709 70.7106 124.692C71.5627 124.666 72.4163 124.655 73.2662 124.593C74.3668 124.512 75.4657 124.404 76.5622 124.278C77.7884 124.137 79.0096 123.961 80.2345 123.806C80.8636 123.725 81.4954 123.669 82.1221 123.577C82.3958 123.537 82.6385 123.553 82.8798 123.689C83.0399 123.779 83.2147 123.843 83.3876 123.921C83.3716 124.028 83.3559 124.131 83.3329 124.282C83.4981 124.27 83.6446 124.268 83.7882 124.247C86.2809 123.877 88.7063 123.244 91.0884 122.447C93.3038 121.705 95.4686 120.84 97.601 119.898C97.9863 119.727 98.3817 119.713 98.7878 119.724C99.5216 119.741 100.212 119.611 100.865 119.256C103.114 118.033 105.324 116.752 107.371 115.219C108.309 114.516 109.21 113.771 110.081 112.94C109.766 112.427 110.101 112.065 110.415 111.687L110.334 112.679C111.296 111.795 112.068 110.849 112.846 109.856C113.162 110.366 113.445 110.845 113.544 111.408C113.637 111.942 113.506 112.419 113.13 112.807C112.815 113.132 112.47 113.432 112.124 113.727C107.89 117.338 103.313 120.452 98.2644 122.879C95.3348 124.287 92.3014 125.433 89.1553 126.298C86.9316 126.909 84.6781 127.377 82.3932 127.697C80.5746 127.952 78.7443 128.1 76.9068 128.176C73.8035 128.305 70.7118 128.148 67.6304 127.795C65.0735 127.501 62.5435 127.049 60.0412 126.436C57.1253 125.723 54.284 124.798 51.5254 123.631C47.6674 121.999 44.0582 119.94 40.6942 117.467C37.3476 115.006 34.3227 112.21 31.5732 109.121C28.2355 105.372 25.3753 101.296 22.8749 96.9741C22.4084 96.1677 22.3689 95.2936 22.656 94.4166C22.9993 93.3691 23.5879 92.4348 24.1021 91.4666C24.1669 91.3452 24.2354 91.2254 24.302 91.1048C24.3294 91.1013 24.3568 91.0971 24.3847 91.0935L24.3841 91.0929ZM67.3883 125.503C70.0649 125.486 72.7145 125.47 75.3879 125.454C75.3886 125.31 75.3889 125.209 75.3893 125.116C72.7113 125.093 70.0703 125.069 67.4259 125.046L67.3882 125.503L67.3883 125.503Z" fill="white"/>
<path d="M75.4666 69.7196C75.3378 69.7596 75.2254 69.7944 75.0545 69.8472C74.9605 70.255 74.8541 70.6784 74.7667 71.1049C74.532 72.248 74.3066 73.3923 74.0759 74.536C73.8282 75.7641 73.5765 76.9909 73.328 78.219C72.9672 80.0025 72.6031 81.7853 72.2482 83.5701C71.921 85.2177 71.6029 86.8678 71.2821 88.5166C71.0022 89.9561 70.7183 91.3942 70.4462 92.8349C70.1918 94.1816 69.9526 95.5315 69.7048 96.8794C69.4564 98.2267 69.2014 99.5733 68.9569 100.921C68.7834 101.879 68.6158 102.839 68.4575 103.8C68.3096 104.698 68.1571 105.596 68.0447 106.499C67.9376 107.36 67.8785 108.227 67.7996 109.093C67.7891 109.21 67.7937 109.329 67.7779 109.446C67.7036 109.995 67.4986 110.193 66.9314 110.236C66.244 110.289 65.5552 110.323 64.8678 110.375C63.6362 110.468 62.4052 110.57 61.1736 110.665C60.4756 110.72 59.7777 110.765 59.0797 110.82C58.0985 110.898 57.1193 110.995 56.1374 111.059C55.2311 111.117 54.3215 111.148 53.4178 111.01C52.3229 110.841 51.8169 110.05 52.108 108.957C52.1659 108.74 52.252 108.53 52.298 108.31C52.3348 108.135 52.3512 107.949 52.3387 107.77C52.2855 106.999 52.246 106.226 52.1481 105.461C52.0108 104.389 51.8701 103.315 51.6499 102.258C51.3312 100.729 50.9428 99.2138 50.5793 97.6938C50.3303 96.6526 50.0595 95.6159 49.8242 94.5721C49.6435 93.7686 49.4956 92.958 49.3451 92.1487C49.1532 91.1165 48.9751 90.0824 48.7884 89.0495C48.5111 87.5121 48.2384 85.9735 47.9512 84.4374C47.7507 83.3646 47.5273 82.2956 47.3156 81.2248C47.0666 79.9645 46.8227 78.7029 46.5704 77.4425C46.2168 75.6797 45.8606 73.9174 45.4978 72.1558C45.185 70.6358 44.8695 69.1172 44.5416 67.6004C44.1433 65.7596 43.7378 63.9194 43.3218 62.0824C42.8992 60.2132 42.4713 58.3459 42.0257 56.4819C41.64 54.8685 41.2253 53.2615 40.8257 51.6513C40.6482 50.9355 40.5253 50.2016 40.2907 49.5044C40.0042 48.6539 39.6177 47.8356 39.2911 46.9973C39.1721 46.6913 39.0657 46.3723 39.0151 46.0495C38.9336 45.534 39.1886 45.1384 39.6374 44.9065C40.1862 44.623 40.7573 44.3768 41.3344 44.152C41.5795 44.0566 41.8634 44.0547 42.1296 44.0128C42.1723 44.0063 42.217 44.0141 42.261 44.0115C43.1285 43.9638 43.9737 44.0669 44.8202 44.2757C45.716 44.496 46.6433 44.5128 47.5621 44.4232C48.7365 44.3085 49.9057 44.1442 51.0808 44.034C51.3752 44.0063 51.6835 44.0927 51.9818 44.1449C52.4116 44.2196 52.8375 44.315 53.266 44.3949C53.985 44.5289 54.2551 44.92 54.1493 45.6352C54.0613 46.228 53.9982 46.8246 53.9318 47.42C53.8279 48.3549 54.0678 49.2505 54.2781 50.1474C54.637 51.679 55.0103 53.208 55.377 54.7383C55.6517 55.8833 55.9389 57.0257 56.1952 58.1752C56.5495 59.7634 56.8833 61.3562 57.2198 62.9477C57.5188 64.3614 57.8185 65.775 58.1011 67.1919C58.4968 69.1758 58.8832 71.1616 59.2624 73.1487C59.6075 74.9574 59.9453 76.7673 60.2699 78.5791C60.5151 79.9483 60.728 81.3233 60.9666 82.6945C61.1499 83.7492 61.3405 84.8034 61.5489 85.8536C61.6487 86.3575 61.9044 86.7944 62.2731 87.1629C62.3539 87.2434 62.4453 87.313 62.5879 87.4355C62.6648 86.9806 62.7325 86.5946 62.7943 86.2074C62.9658 85.13 63.136 84.0521 63.3049 82.9741C63.441 82.1062 63.5744 81.2377 63.7117 80.3697C63.8852 79.2705 64.0607 78.1713 64.2362 77.0721C64.4149 75.9509 64.5871 74.8285 64.7751 73.7087C65.0032 72.3472 65.2463 70.9877 65.4796 69.6268C65.688 68.4129 65.8878 67.1977 66.0981 65.9838C66.3866 64.3175 66.6843 62.652 66.9722 60.9857C67.1437 59.9941 67.3001 58.9999 67.4697 58.0076C67.6773 56.7944 67.9047 55.5837 68.0986 54.3685C68.259 53.3639 68.4082 52.3562 68.514 51.3446C68.5942 50.5779 68.6152 49.804 68.627 49.0328C68.6342 48.5521 68.5672 48.0701 68.5521 47.5882C68.5475 47.4451 68.5757 47.2834 68.6434 47.159C68.9234 46.6481 69.3453 46.3047 69.9539 46.2615C71.2953 46.1661 72.638 46.0843 73.9807 46.0038C75.4226 45.9181 76.8638 45.8156 78.3064 45.7679C79.2239 45.7377 80.1453 45.7718 81.0621 45.8208C81.6976 45.8549 81.9822 46.3201 81.8475 47.0063C81.7693 47.4052 81.6779 47.8014 81.6017 48.2009C81.4972 48.748 81.5563 49.2873 81.6779 49.8266C82.1314 51.842 82.577 53.8588 83.0245 55.8749C83.382 57.4844 83.7356 59.0946 84.0971 60.7029C84.4533 62.2898 84.8181 63.8755 85.1782 65.4619C85.5384 67.0489 85.8979 68.6352 86.2554 70.2228C86.6195 71.8414 87 73.4567 87.3365 75.0811C87.6835 76.7576 87.993 78.4419 88.3052 80.1255C88.4906 81.1249 88.6687 82.1262 88.8126 83.1313C88.9289 83.9438 89.203 84.7099 89.4343 85.4902C89.5421 85.853 89.7728 86.0456 90.1336 86.1481C90.2998 86.0431 90.3787 85.8839 90.4057 85.699C90.5594 84.6507 90.729 83.6036 90.8545 82.5521C90.9143 82.0527 90.8506 81.5398 90.9091 81.0405C90.9991 80.2763 91.1358 79.5166 91.2719 78.7583C91.4552 77.7357 91.6504 76.7157 91.8502 75.6958C92.1709 74.0572 92.5101 72.4226 92.8222 70.7828C93.1903 68.8478 93.5399 66.909 93.8935 64.9715C94.2622 62.9496 94.6328 60.9284 94.9897 58.9045C95.3131 57.0701 95.6206 55.2331 95.9335 53.3968C96.1477 52.141 96.3731 50.8871 96.5664 49.6281C96.7261 48.5907 96.8345 47.5456 96.9889 46.5076C97.0612 46.0224 97.1546 45.5353 97.3005 45.0676C97.451 44.5869 97.7342 44.4123 98.2462 44.4522C98.7128 44.4883 99.1742 44.5837 99.6382 44.6526C100.507 44.7821 101.382 44.8092 102.257 44.766C102.945 44.7319 103.63 44.6552 104.318 44.6036C105.484 44.516 106.651 44.4052 107.819 44.3594C108.471 44.3337 109.128 44.4194 109.782 44.4574C109.835 44.4606 109.888 44.4799 109.941 44.4947C110.641 44.6983 110.911 45.1816 110.669 45.8575C110.569 46.1378 110.412 46.4 110.264 46.6616C110.169 46.8298 110.046 46.9831 109.93 47.1391C109.599 47.583 109.452 48.0907 109.35 48.6236C108.896 51.0108 108.434 53.3968 107.972 55.7834C107.599 57.7061 107.223 59.6288 106.849 61.5514C106.451 63.6004 106.059 65.6513 105.653 67.699C105.297 69.4941 104.928 71.2866 104.557 73.0791C104.138 75.1017 103.725 77.1262 103.281 79.1436C102.941 80.69 102.544 82.2248 102.193 83.7692C101.823 85.3974 101.471 87.0295 101.121 88.6623C100.751 90.3891 100.389 92.1178 100.031 93.8472C99.7085 95.3981 99.3963 96.9509 99.0789 98.5025C98.7167 100.275 98.3513 102.046 97.9932 103.819C97.8282 104.638 97.6324 105.454 97.5305 106.28C97.403 107.312 97.3754 108.355 97.4851 109.395C97.5265 109.789 97.449 110.167 97.2663 110.515C97.0711 110.886 96.751 111.101 96.3146 111.093C95.9985 111.087 95.6831 111.037 95.3663 111.024C93.8751 110.964 92.3911 111.042 90.9137 111.252C89.6499 111.432 88.3861 111.613 87.1189 111.772C86.8317 111.809 86.5301 111.772 86.2396 111.738C85.5784 111.659 84.9212 111.555 84.2607 111.471C83.754 111.406 83.2802 111.273 82.8681 110.959C82.3029 110.53 81.9053 109.713 82.3121 108.864C82.6525 108.152 82.8247 107.402 82.7728 106.618C82.7406 106.128 82.6598 105.638 82.5665 105.155C82.3174 103.863 82.0597 102.572 81.7863 101.284C81.5044 99.9541 81.1981 98.6288 80.9076 97.3008C80.585 95.8266 80.2623 94.3523 79.9508 92.8755C79.6504 91.4516 79.3553 90.0257 79.0753 88.5978C78.894 87.6732 78.7461 86.7428 78.5798 85.8156C78.3307 84.4245 78.0948 83.0315 77.8234 81.6442C77.4139 79.5547 76.9729 77.4703 76.5549 75.382C76.2461 73.8395 75.9503 72.2944 75.6513 70.7499C75.5862 70.4142 75.531 70.0766 75.4679 69.7228L75.4666 69.7196Z" fill="white"/>
</svg>
