<svg width="144" height="144" viewBox="0 0 144 144" fill="none" xmlns="http://www.w3.org/2000/svg">
<rect width="144" height="144" fill="black"/>
<path d="M19.1168 53.3168C19.1319 53.2142 19.1239 53.1016 19.1657 53.0114C19.6981 51.8621 20.2269 50.7103 20.778 49.5696C21.3433 48.4004 21.9329 47.2419 22.5106 46.0784C22.5239 46.051 22.5248 46.0173 22.539 45.953C22.4203 45.8788 22.295 45.8005 22.1338 45.6999C21.9858 45.9113 21.8475 46.1104 21.7088 46.3082C20.8569 47.5252 20.0025 48.7411 19.1542 49.9605C19.0016 50.1803 18.8877 50.426 18.7327 50.6442C18.5451 50.9084 18.3284 51.081 17.9383 51.0054C17.439 50.9085 17.0433 51.1557 16.7564 51.5433C16.4305 51.9845 16.1218 52.4393 15.8168 52.8959C15.3739 53.5582 14.9415 54.2266 14.5035 54.8916C14.4693 54.9439 14.4258 54.9909 14.371 55.061C14.2555 54.988 14.1498 54.921 14.0362 54.8489C14.0872 54.254 14.2077 53.6921 14.4426 53.1561C15.7002 50.2834 17.0751 47.4664 18.605 44.725C20.9648 40.4963 23.6861 36.511 26.9302 32.882C29.3704 30.1526 32.0557 27.6801 34.9819 25.458C38.3562 22.8954 42.0097 20.7913 45.8968 19.068C49.72 17.3731 53.6859 16.0939 57.7839 15.204C59.8844 14.7478 62.0068 14.4133 64.1477 14.1746C66.6829 13.8924 69.226 13.7871 71.7754 13.8515C74.7999 13.9278 77.8031 14.2445 80.7784 14.8131C82.8021 15.2 84.7964 15.6959 86.7593 16.3194C88.4169 16.8459 90.0492 17.437 91.6426 18.1292C94.162 19.2234 96.5788 20.505 98.8908 21.9796C103.514 24.9287 107.56 28.519 111.185 32.5847C115.419 37.3333 118.786 42.6134 121.355 48.3864C122.281 50.4673 123.111 52.5848 123.807 54.7497C123.973 55.2672 124.059 55.8093 124.187 56.3621C124.02 56.4099 123.909 56.4417 123.768 56.4816C123.701 56.3708 123.641 56.2733 123.584 56.1731C122.964 55.0836 122.348 53.9926 121.725 52.9053C121.484 52.4829 121.131 52.2526 120.617 52.3352C120.542 52.3469 120.466 52.3488 120.325 52.3599C120.143 52.0994 119.925 51.8309 119.755 51.5362C118.965 50.169 118.189 48.794 117.407 47.4227C117.332 47.2925 117.248 47.168 117.151 47.0151C117.021 47.0715 116.909 47.1202 116.804 47.1659C117.721 49.5503 118.625 51.9015 119.533 54.2603C119.441 54.3348 119.379 54.3856 119.274 54.4718C119.005 54.117 118.716 53.8036 118.504 53.4461C117.057 51.0092 115.621 48.566 114.192 46.1193C112.404 43.0586 110.423 40.1282 108.143 37.3962C105.398 34.1067 102.318 31.1611 98.8271 28.6359C96.6075 27.0297 94.2632 25.6252 91.796 24.4157C90.0091 23.5393 88.175 22.7719 86.2909 22.132C85.03 21.7036 83.7434 21.3457 82.4587 20.9887C80.1126 20.3375 77.7219 19.8947 75.3014 19.6454C73.757 19.4866 72.2035 19.3721 70.6524 19.3406C67.4403 19.2751 64.258 19.5755 61.108 20.1939C55.4085 21.3132 50.1097 23.426 45.1702 26.3829C42.7096 27.8556 40.2407 29.3264 37.9994 31.1283C35.0665 33.4862 32.4373 36.1317 30.0336 39.0019C27.9683 41.4679 26.0601 44.0489 24.198 46.664C22.824 48.5941 21.4518 50.5258 20.0717 52.4524C19.8786 52.7216 19.65 52.9661 19.4294 53.215C19.3761 53.2749 19.2897 53.3064 19.2187 53.3513C19.1846 53.3392 19.1504 53.3276 19.117 53.3155L19.1168 53.3168Z" fill="#D9B365"/>
<path d="M117.322 99.4596C116.223 101.11 115.046 102.702 113.718 104.206C113.607 104.136 113.509 104.073 113.372 103.987C114.422 102.253 115.634 100.641 116.7 98.8999C116.591 98.8037 116.492 98.7157 116.365 98.6022C116.273 98.718 116.197 98.8051 116.131 98.8986C113.688 102.375 110.998 105.653 107.975 108.665C104.437 112.191 100.53 115.258 96.1603 117.746C92.4741 119.844 88.5788 121.456 84.4694 122.576C82.2437 123.183 79.9868 123.642 77.6998 123.954C75.4673 124.259 73.2214 124.423 70.9662 124.471C68.8731 124.514 66.7848 124.447 64.6977 124.293C64.5837 124.285 64.4694 124.279 64.3553 124.272C64.3476 124.301 64.34 124.33 64.3323 124.359C65.6896 124.944 67.0463 125.528 68.4171 126.119L68.3985 126.427C67.8188 126.334 67.2589 126.252 66.7018 126.154C65.8619 126.008 65.0186 125.875 64.1861 125.694C63.108 125.458 62.0355 125.195 60.968 124.915C59.774 124.602 58.59 124.255 57.3996 123.927C56.7883 123.759 56.1709 123.613 55.5635 123.433C55.2983 123.355 55.0558 123.336 54.7975 123.437C54.6263 123.503 54.4442 123.542 54.262 123.594C54.2627 123.703 54.2637 123.807 54.265 123.96C54.1032 123.924 53.9584 123.901 53.8193 123.86C51.4042 123.141 49.093 122.17 46.8478 121.044C44.7599 119.996 42.7395 118.833 40.7622 117.598C40.405 117.374 40.0155 117.304 39.6121 117.257C38.8832 117.17 38.218 116.944 37.6219 116.5C35.5689 114.971 33.5631 113.389 31.754 111.581C30.9249 110.753 30.1388 109.887 29.3938 108.942C29.7785 108.478 29.4988 108.073 29.2409 107.654L29.1811 108.647C28.3538 107.635 27.7234 106.59 27.0946 105.497C26.7094 105.957 26.3613 106.391 26.1838 106.934C26.0151 107.449 26.0778 107.941 26.3951 108.378C26.6608 108.744 26.96 109.09 27.2601 109.431C30.9395 113.606 35.0295 117.337 39.683 120.455C42.3836 122.264 45.2239 123.828 48.2156 125.13C50.3304 126.05 52.4949 126.832 54.7113 127.473C56.4754 127.983 58.2662 128.389 60.0743 128.725C63.1281 129.293 66.2108 129.575 69.3113 129.662C71.8839 129.734 74.4524 129.645 77.0163 129.393C80.0039 129.1 82.9476 128.587 85.8438 127.823C89.894 126.754 93.7585 125.228 97.4392 123.256C101.101 121.294 104.491 118.955 107.651 116.287C111.486 113.049 114.895 109.419 117.983 105.495C118.559 104.763 118.722 103.903 118.562 102.995C118.371 101.909 117.92 100.901 117.548 99.8695C117.502 99.7402 117.451 99.6119 117.402 99.4831C117.375 99.4757 117.349 99.4676 117.322 99.4602L117.322 99.4596ZM69.8757 127.428C67.2284 127.032 64.6078 126.641 61.9637 126.246C61.9835 126.103 61.9974 126.003 62.0102 125.911C64.6645 126.267 67.2822 126.618 69.9032 126.97L69.8756 127.428L69.8757 127.428Z" fill="#D9B365"/>
</svg>
