<svg width="144" height="144" viewBox="0 0 144 144" fill="none" xmlns="http://www.w3.org/2000/svg">
<rect width="144" height="144" fill="black"/>
<path d="M23.1066 59.064C23.1151 58.9606 23.0999 58.8488 23.1359 58.7561C23.5938 57.5751 24.0479 56.3918 24.5249 55.2182C25.0143 54.0153 25.5286 52.8215 26.0307 51.6234C26.0423 51.5953 26.0411 51.5616 26.0511 51.4964C25.928 51.4301 25.7979 51.3599 25.6306 51.2698C25.4964 51.4902 25.3711 51.6978 25.2454 51.904C24.473 53.1729 23.698 54.441 22.9294 55.7121C22.7912 55.9413 22.6932 56.1938 22.5525 56.4214C22.3821 56.697 22.1769 56.8831 21.7828 56.8326C21.2783 56.7678 20.8992 57.0398 20.6377 57.445C20.3406 57.9061 20.0616 58.3797 19.7865 58.8548C19.3869 59.5441 18.998 60.2388 18.6035 60.9304C18.5726 60.9848 18.5323 61.0345 18.482 61.1079C18.3621 61.0425 18.2523 60.9824 18.1344 60.9177C18.1472 60.3207 18.2315 59.7523 18.4318 59.2024C19.5031 56.2552 20.6952 53.3561 22.0467 50.5224C24.1314 46.1516 26.5923 42.0005 29.5978 38.1715C31.8585 35.2918 34.3803 32.6527 37.1585 30.248C40.362 27.4749 43.8736 25.1416 47.6426 23.1734C51.3496 21.2376 55.2257 19.7074 59.2584 18.5574C61.3254 17.9678 63.4221 17.4983 65.5434 17.1233C68.0554 16.6796 70.5865 16.412 73.1348 16.3133C76.158 16.1961 79.1753 16.3202 82.1809 16.6974C84.2251 16.9542 86.2471 17.3216 88.2458 17.8183C89.9337 18.2378 91.6004 18.7234 93.2348 19.3123C95.819 20.2432 98.3128 21.3677 100.714 22.6915C105.517 25.339 109.784 28.6634 113.661 32.489C118.19 36.9572 121.888 42.0113 124.821 47.6083C125.878 49.6257 126.841 51.6859 127.674 53.8019C127.873 54.3077 127.994 54.8432 128.157 55.3867C127.993 55.445 127.884 55.4839 127.746 55.5327C127.673 55.4264 127.606 55.333 127.542 55.2366C126.854 54.1889 126.17 53.1396 125.479 52.0942C125.211 51.6882 124.844 51.4809 124.336 51.5962C124.262 51.6127 124.187 51.6194 124.047 51.6396C123.849 51.3912 123.614 51.1372 123.425 50.854C122.55 49.54 121.687 48.2174 120.819 46.8989C120.736 46.7738 120.644 46.655 120.538 46.5086C120.411 46.5731 120.303 46.6289 120.201 46.6812C121.268 49.0021 122.321 51.2907 123.377 53.5867C123.291 53.6669 123.232 53.7216 123.133 53.8142C122.842 53.4774 122.534 53.1831 122.299 52.8399C120.699 50.5004 119.109 48.1541 117.527 45.8038C115.548 42.8635 113.383 40.0658 110.933 37.4851C107.984 34.3778 104.721 31.6352 101.076 29.3382C98.7585 27.8772 96.3293 26.6255 93.7897 25.5761C91.9505 24.8157 90.0711 24.1672 88.1499 23.649C86.8642 23.3021 85.5574 23.0272 84.2525 22.753C81.8696 22.2531 79.4554 21.964 77.0239 21.87C75.4726 21.8102 73.9149 21.7952 72.365 21.8629C69.1552 22.0029 65.9987 22.5061 62.8947 23.3246C57.2784 24.8059 52.1254 27.2531 47.385 30.5198C45.0236 32.1467 42.6538 33.7723 40.5322 35.7138C37.7561 38.2544 35.3014 41.0626 33.086 44.0805C31.1826 46.6735 29.4433 49.3712 27.7522 52.0999C26.5044 54.1139 25.2584 56.1294 24.0043 58.1403C23.8288 58.4213 23.6163 58.6799 23.4121 58.9424C23.3627 59.0055 23.2785 59.0426 23.2105 59.0919C23.1757 59.082 23.1409 59.0726 23.1067 59.0627L23.1066 59.064Z" fill="#D9B365"/>
<path d="M24.3851 91.0929C25.2389 92.8828 26.1789 94.6255 27.2801 96.302C27.3999 96.2485 27.5061 96.2004 27.6539 96.1343C26.8598 94.2691 25.8888 92.5018 25.0809 90.6271C25.2015 90.5471 25.3124 90.4741 25.4547 90.3798C25.5292 90.5075 25.5918 90.6045 25.6435 90.7063C27.5693 94.4942 29.7682 98.1204 32.3332 101.53C35.3362 105.522 38.7686 109.112 42.742 112.194C46.0937 114.793 49.7213 116.94 53.6304 118.632C55.7476 119.548 57.9168 120.322 60.1364 120.955C62.3032 121.573 64.5031 122.054 66.7288 122.421C68.7946 122.761 70.8714 122.99 72.9592 123.133C73.0733 123.141 73.1872 123.152 73.3011 123.161C73.3046 123.191 73.3081 123.221 73.3116 123.251C71.8851 123.637 70.4593 124.023 69.0186 124.414L68.9933 124.721C69.5803 124.712 70.1463 124.709 70.7116 124.692C71.5637 124.666 72.4173 124.655 73.2671 124.593C74.3678 124.512 75.4667 124.404 76.5631 124.278C77.7894 124.137 79.0106 123.961 80.2355 123.806C80.8646 123.725 81.4963 123.669 82.1231 123.577C82.3968 123.537 82.6395 123.553 82.8808 123.689C83.0409 123.779 83.2156 123.843 83.3886 123.921C83.3725 124.028 83.3568 124.131 83.3338 124.282C83.499 124.27 83.6456 124.268 83.7891 124.247C86.2819 123.877 88.7072 123.244 91.0894 122.447C93.3048 121.705 95.4696 120.84 97.6019 119.898C97.9872 119.727 98.3827 119.713 98.7888 119.724C99.5226 119.741 100.213 119.611 100.866 119.256C103.115 118.033 105.325 116.752 107.372 115.219C108.31 114.516 109.211 113.771 110.082 112.94C109.767 112.427 110.102 112.065 110.416 111.687L110.335 112.679C111.297 111.795 112.069 110.849 112.847 109.856C113.163 110.366 113.446 110.845 113.544 111.408C113.638 111.942 113.507 112.419 113.131 112.807C112.816 113.132 112.471 113.432 112.125 113.727C107.891 117.338 103.314 120.452 98.2654 122.879C95.3358 124.287 92.3024 125.433 89.1563 126.298C86.9325 126.909 84.679 127.377 82.3941 127.697C80.5756 127.952 78.7453 128.1 76.9078 128.176C73.8045 128.305 70.7128 128.148 67.6313 127.795C65.0744 127.501 62.5445 127.049 60.0422 126.436C57.1263 125.723 54.285 124.798 51.5263 123.631C47.6684 121.999 44.0592 119.94 40.6952 117.467C37.3486 115.006 34.3237 112.21 31.5741 109.121C28.2365 105.372 25.3763 101.296 22.8758 96.9741C22.4094 96.1677 22.3698 95.2936 22.657 94.4166C23.0003 93.3691 23.5889 92.4348 24.1031 91.4666C24.1678 91.3452 24.2364 91.2254 24.303 91.1048C24.3303 91.1013 24.3577 91.0971 24.3857 91.0935L24.3851 91.0929ZM67.3893 125.503C70.0659 125.486 72.7155 125.47 75.3889 125.454C75.3896 125.31 75.3899 125.209 75.3903 125.116C72.7123 125.093 70.0712 125.069 67.4269 125.046L67.3892 125.503L67.3893 125.503Z" fill="#D9B365"/>
</svg>
